HIERARCHY
ROOT Hips
{
	OFFSET 0.00000 0.00000 0.00000
	CHANNELS 6 Xposition Yposition Zposition Yrotation Zrotation Xrotation 
	JOINT Lumbar
	{
		OFFSET 0 0 0
		CHANNELS 3 Zrotation Xrotation Yrotation
		JOINT Neck
		{
			OFFSET 0.00 0.2701 0.00
			CHANNELS 3 Zrotation Xrotation Yrotation
			End Site
			{
				OFFSET 0.00 0.1379 0.00
			}
		}
		JOINT RightShoulder
		{
			OFFSET 0.0119 0.2289 0.1181
			CHANNELS 3 Zrotation Xrotation Yrotation
			JOINT RightElbow
			{
				OFFSET 0.00 -0.1475 0.00
				CHANNELS 2 Zrotation Yrotation
				JOINT RightWrist
				{
					OFFSET 0.00 -0.1605 0.00
					CHANNELS 2 Zrotation Xrotation
					End Site
					{
						OFFSET 0.0040 -0.1068 0.0006
					}
				}
			}
		}
		JOINT LeftShoulder
		{
			OFFSET 0.0119 0.2289 -0.1181
			CHANNELS 3 Zrotation Xrotation Yrotation
			JOINT LeftElbow
			{
				OFFSET 0.00 -0.1475 0.00
				CHANNELS 2 Zrotation Yrotation
				JOINT LeftWrist
				{
					OFFSET 0.00 -0.1605 0.00
					CHANNELS 2 Zrotation Xrotation
					End Site
					{
						OFFSET 0.0040 -0.1068 -0.0006
					}
				}
			}
		}
	}
	JOINT RightHip
	{
		OFFSET 0.0316 -0.0424 0.0458
		CHANNELS 3 Zrotation Xrotation Yrotation
		JOINT RightKnee
		{
			OFFSET 0.00 -0.2438 0.00
			CHANNELS 1 Zrotation
			JOINT RightAnkle
			{
				OFFSET 0.00 -0.2449 0.00
				CHANNELS 3 Zrotation Xrotation Yrotation
				End Site
				{
					OFFSET 0.1237 -0.0542 0.0051
				}
			}
		}
	}
	JOINT LeftHip
	{
		OFFSET 0.0316 -0.0424 -0.0458
		CHANNELS 3 Zrotation Xrotation Yrotation
		JOINT LeftKnee
		{
			OFFSET 0.00 -0.2438 0.00
			CHANNELS 1 Zrotation
			JOINT LeftAnkle
			{
				OFFSET 0.00 -0.2449 0.00
				CHANNELS 3 Zrotation Xrotation Yrotation
				End Site
				{
					OFFSET 0.1237 -0.0542 -0.0051
				}
			}
		}
	}
}
MOTION
Frames: 16
Frame Time: 0.02
-0.12156 -0.36762 0.24441 96.64324 -86.91851 -89.98996 -6.85228 7.37545 4.62069 38.10984 -9.63067 -2.11994 106.63295 6.18533 41.31832 115.67663 134.01815 -72.86717 -12.00994 113.38986 -3.57042 -38.15079 114.21083 -116.1768 -53.68427 6.72556 115.89562 -17.45671 26.7623 -147.07827 22.28701 33.116 13.00575 108.93749 13.40125 -16.65206 -147.07826 22.28467 -33.10778 -12.99853
-0.12283 -0.36701 0.24505 96.41445 -86.92738 -89.99283 -6.88225 7.32135 4.61186 37.98638 -9.57486 -2.11994 106.77975 6.17073 41.88914 114.89036 131.00584 -69.43555 -11.08234 113.43 -3.48657 -38.7052 113.81089 -115.74539 -53.10671 6.57866 115.47655 -17.39772 26.19109 -147.07827 22.28707 33.11602 13.00575 108.53856 13.20141 -16.01668 -147.07826 22.2854 -33.10955 -12.99981
-0.12366 -0.3667 0.24556 96.12809 -86.94538 -89.99311 -6.73806 7.19957 4.80485 38.03257 -9.49309 -2.11994 106.90882 6.01272 42.43805 113.79607 127.15301 -65.03968 -9.91337 113.40301 -3.6131 -39.00755 113.32567 -115.78364 -53.45154 6.63657 115.1172 -17.40313 25.68599 -147.07827 22.28713 33.11603 13.00575 108.13199 13.15398 -15.42348 -147.07826 22.28582 -33.1108 -13.00091
-0.12464 -0.36629 0.24612 95.86948 -86.96334 -89.9924 -6.66899 7.10697 4.89165 38.00762 -9.42336 -2.11994 107.04552 5.92823 42.97916 112.8561 123.78041 -61.20313 -8.88516 113.41208 -3.63536 -39.41894 112.86097 -115.586 -53.3344 6.59274 114.7276 -17.39549 25.14811 -147.07827 22.28718 33.11602 13.00574 107.71863 13.03745 -14.80054 -147.07826 22.28637 -33.11225 -13.00206
-0.12582 -0.36573 0.24672 95.6097 -86.96578 -89.99318 -6.61043 7.02137 5.03072 37.95424 -9.3488 -2.11994 107.1757 5.80603 43.5898 111.84863 119.96098 -56.80506 -7.714 113.3939 -3.67513 -39.86066 112.4619 -115.43841 -53.3155 6.5681 114.34988 -17.32335 24.62268 -147.07827 22.28727 33.11609 13.00577 107.34331 12.91697 -14.2165 -147.07826 22.28698 -33.1139 -13.00338
-0.12649 -0.36556 0.2472 95.33741 -87.00165 -89.99304 -6.49201 6.90586 5.11305 37.99802 -9.27963 -2.11994 107.31789 5.72892 44.05194 110.91341 116.88983 -53.37599 -6.78964 113.41769 -3.73672 -40.1762 111.91262 -115.32323 -53.35603 6.561 113.96268 -17.39779 24.08565 -147.07826 22.28727 33.11601 13.00572 106.89093 12.83924 -13.56331 -147.07826 22.28739 -33.11501 -13.00429
-0.12583 -0.36645 0.24732 95.03419 -87.13198 -89.9928 -6.23965 6.71305 4.97938 38.31406 -9.23089 -2.11994 107.50525 5.81554 44.11627 110.22645 116.0268 -52.74063 -6.58187 113.57837 -3.79403 -40.21016 110.94019 -115.08111 -53.16463 6.52414 113.52756 -17.88083 23.5139 -147.07826 22.28697 33.11547 13.00544 106.20303 12.87944 -12.71357 -147.07826 22.28728 -33.11471 -13.00404
-0.12467 -0.36772 0.24732 94.7213 -87.29452 -89.99251 -5.93583 6.49416 4.78463 38.71525 -9.18894 -2.11994 107.70563 5.952 44.03159 109.62822 115.95877 -53.13715 -6.63567 113.78372 -3.87061 -40.12404 109.82641 -114.8768 -53.03816 6.50442 113.08245 -18.50543 22.92643 -147.07826 22.28657 33.11478 13.00508 105.44256 12.9521 -11.79319 -147.07826 22.28698 -33.11389 -13.00339
-0.12375 -0.3688 0.24739 94.41887 -87.43936 -89.99216 -5.66393 6.29468 4.62549 39.04784 -9.1452 -2.11994 107.89573 6.06353 44.01137 109.00779 115.57591 -53.14966 -6.58802 113.96579 -3.94999 -40.08842 108.79751 -114.73014 -53.00884 6.4984 112.64647 -19.05172 22.3364 -147.07826 22.28623 33.1142 13.00478 104.73227 12.98558 -10.9024 -147.07826 22.28678 -33.11336 -13.00297
-0.12278 -0.36999 0.24739 94.08931 -87.5979 -89.99188 -5.35036 6.06187 4.44007 39.50972 -9.09588 -2.11994 108.10157 6.18019 44.00362 108.30101 114.97842 -52.7867 -6.46222 114.15655 -3.98929 -40.06083 107.67754 -114.294 -52.49385 6.41181 112.19245 -19.65828 21.78662 -147.07826 22.2858 33.11345 13.0044 103.9503 13.12454 -10.02187 -147.07826 22.2865 -33.1126 -13.00236
-0.1218 -0.37104 0.24752 93.81423 -87.73488 -89.99155 -5.11296 5.892 4.29232 39.72377 -9.05904 -2.11994 108.28033 6.29919 43.93534 107.79794 115.01357 -53.44161 -6.55946 114.34258 -4.11182 -39.99186 106.71582 -114.45038 -52.97138 6.4904 111.77374 -20.17339 21.15217 -147.07826 22.28555 33.11301 13.00417 103.29892 13.0531 -9.10484 -147.07826 22.28634 -33.11218 -13.00203
-0.12096 -0.37157 0.24807 93.69585 -87.8091 -89.99113 -5.10546 5.91265 4.26228 39.20367 -9.06478 -2.11994 108.36185 6.41921 43.73197 107.84758 116.72836 -56.84662 -7.25309 114.48953 -4.47751 -39.83302 106.21753 -116.34632 -56.36379 7.05521 111.44699 -20.3901 20.25604 -147.07826 22.28585 33.11346 13.00438 103.03923 12.36224 -8.08627 -147.07826 22.2866 -33.1129 -13.00264
-0.12011 -0.37196 0.24875 93.63221 -87.85968 -89.99068 -5.17594 5.99594 4.27131 38.43647 -9.08124 -2.11994 108.41962 6.53932 43.4737 108.09801 119.03243 -61.20712 -8.15477 114.63376 -4.92181 -39.63844 105.8849 -118.81248 -60.71028 7.77797 111.15722 -20.51202 19.28134 -147.07826 22.28634 33.11421 13.00475 102.91066 11.46388 -7.03703 -147.07826 22.28698 -33.11395 -13.00353
-0.11924 -0.37244 0.24936 93.54117 -87.91788 -89.99026 -5.20703 6.04415 4.2625 37.79976 -9.08637 -2.11994 108.50075 6.65575 43.24368 108.25092 120.98826 -65.0124 -8.93366 114.78889 -5.31747 -39.46523 105.48281 -120.94335 -64.49422 8.40529 110.85553 -20.68395 18.36244 -147.07826 22.28674 33.1148 13.00504 102.71381 10.67924 -6.01289 -147.07826 22.28728 -33.11478 -13.00422
-0.1185 -0.3728 0.25002 93.46026 -87.99007 -89.98977 -5.25298 6.11939 4.25279 37.08666 -9.1186 -2.11994 108.52834 6.78929 42.99481 108.43522 123.31298 -69.37378 -9.84206 114.90292 -5.76898 -39.26768 105.05305 -123.40348 -68.83622 9.13441 110.53323 -20.83018 17.35613 -147.07826 22.28719 33.11549 13.00537 102.55259 9.81212 -4.93737 -147.07827 22.28768 -33.1159 -13.0052
-0.11748 -0.3734 0.25061 93.37158 -88.02747 -89.98943 -5.28711 6.15344 4.25404 36.47617 -9.09734 -2.11994 108.66281 6.88645 42.77374 108.59815 124.99642 -72.77802 -10.5251 115.1036 -6.1219 -39.11186 104.71973 -125.30496 -72.22799 9.68724 110.26237 -21.00736 16.51603 -147.07826 22.28756 33.11604 13.00564 102.34738 9.06926 -3.96479 -147.07827 22.28791 -33.11651 -13.00567
